# xmcd
#
# Track frame offsets: 
#        150
#        22179
#        49905
#        69318
#        96240
#        121186
#        143398
#
# Disc length: 2284 seconds
#
# Revision: 12
# Processed by: cddbd v1.5.2PL0 Copyright (c) Steve Scherf et al.
# Submitted via: ExactAudioCopy v0.99pb5
#
DISCID=5908ea07
DTITLE=Kate Bush - Aerial #1
DYEAR=2005
DGENRE=Art-Rock
TTITLE0=King Of The Mountain
TTITLE1=Pi
TTITLE2=Bertie
TTITLE3=Mrs. Bartolozzi
TTITLE4=How To Be Invisible
TTITLE5=Joanni
TTITLE6=A Coral Room
EXTD=
EXTT0=
EXTT1=
EXTT2=
EXTT3=
EXTT4=
EXTT5=
EXTT6=
PLAYORDER=
